<svg xmlns="http://www.w3.org/2000/svg" width="1200" height="630" viewBox="0 0 1200 630"><defs><linearGradient id="bg" x1="0" y1="0" x2="1" y2="1"><stop stop-color="#07111f"/><stop offset=".55" stop-color="#080a18"/><stop offset="1" stop-color="#10081f"/></linearGradient><radialGradient id="glow" cx=".78" cy=".22" r=".65"><stop stop-color="#2bd4ff" stop-opacity=".42"/><stop offset=".42" stop-color="#7f65ff" stop-opacity=".16"/><stop offset="1" stop-opacity="0"/></radialGradient></defs><rect width="1200" height="630" fill="url(#bg)"/><rect width="1200" height="630" fill="url(#glow)"/><path d="M0 490 150 330l120 110 180-205 190 210 180-150 200 170v165H0z" fill="#0d1727"/><path d="M0 570 220 410l150 150 180-180 160 180 210-160 280 190v40H0z" fill="#070b12"/><g stroke="#54d5ff" stroke-opacity=".12"><path d="M0 570h1200M0 540h1200M0 510h1200"/><path d="M120 630 390 420M280 630 495 450M440 630 600 470M650 630 720 500M820 630 855 515M980 630 995 540"/></g><g transform="translate(80 92)"><path d="M0 116V0l58 47V0l104 80v54l-104-80v62H42V60L0 27z" fill="#18d1ff"/></g><text x="285" y="185" fill="#fff" font-family="Arial,Helvetica,sans-serif" font-size="92" font-weight="800" letter-spacing="8">NIVARO</text><text x="290" y="245" fill="#75dfff" font-family="Arial,Helvetica,sans-serif" font-size="25" font-weight="700" letter-spacing="9">GAMES</text><text x="285" y="355" fill="#fff" font-family="Arial,Helvetica,sans-serif" font-size="58" font-weight="700">Games that begin</text><text x="285" y="420" fill="#8b7bff" font-family="Arial,Helvetica,sans-serif" font-size="58" font-weight="700">as ideas.</text><text x="290" y="472" fill="#aeb9c9" font-family="Arial,Helvetica,sans-serif" font-size="22">Independent games · original worlds · playful experiments</text></svg>